<?xml version="1.0" standalone="no"?><!DOCTYPE svg PUBLIC "-//W3C//DTD SVG 1.1//EN" "http://www.w3.org/Graphics/SVG/1.1/DTD/svg11.dtd"><svg t="1484808596441" class="icon" style="" viewBox="0 0 1024 1024" version="1.1" xmlns="http://www.w3.org/2000/svg" p-id="1010" xmlns:xlink="http://www.w3.org/1999/xlink" width="32" height="32"><defs><style type="text/css"></style></defs><path d="M336.500429 211.462133c28.229948 16.379039 73.593112 30.882358 112.968911 10.606569 10.279111 7.602142 14.878872 6.993275 22.788006-9.622148 11.755742-42.615587 1.409093-62.281485 7.862062-79.881328 10.562567-22.669302 23.536043-83.542718 24.899086-106.165971 1.149173 25.862018 6.218632 91.898013 12.272511 109.216447 4.812609 21.447475-6.427386 41.817408 1.737574 76.549443 7.554046 19.102057 17.928325 19.85214 29.919427 10.982122 33.982976 12.297071 76.973092 6.664793 113.041566-7.977695-2.369977 60.07626-47.026036 76.596516-55.639205 86.73441-3.02694 3.520173 3.094478 22.010293 1.428535 25.719778 18.448164 2.111081 81.948407-3.426029 102.482069-12.719696-9.504468 56.509015-72.253604 85.279269-97.742115 104.569614-1.781576 3.003404 1.76111 11.076266 2.13564 14.925944 31.095205 0.8913 93.329619-3.942799 117.02939-21.12104-2.696412 68.054979-75.069743 97.199763-108.276029 115.176183-3.895727 2.158153 6.197142 20.36891 3.613294 22.716374 21.425985 2.01796 86.640266 2.393513 132.261303-12.485359-15.818267 67.115584-79.83528 88.237647-109.262496 105.555058-4.225231 2.393513 6.664793 12.624529 3.472078 15.722076 11.031241 2.769067 101.097536 9.105379 144.392598-6.711865-19.827581 62.000076-63.571874 83.449597-131.133619 97.716532-1.358951 2.01796-0.257873 22.668279 0.868787 28.254507 55.429427 1.408069 136.719848-6.007831 204.821899-28.068266-77.628008 187.222055-539.296693 347.781868-720.885448 22.200628 51.886741 17.084097 104.687294 16.427134 152.160515 17.975397l1.995447-28.865421c-33.114189-14.877849-85.138052-38.71986-111.706151-108.74675 44.61308 11.688203 119.79948 10.796904 150.003386 5.587252 1.360997-5.303796 3.75451-13.471826 3.329838-16.476253-32.829709-14.408151-86.591147-28.76923-113.298416-100.344383 58.623165 16.521279 128.882346 14.032598 139.065266 10.326183l3.803629-19.009959c-38.556131-28.628014-94.78476-53.033867-105.272625-113.626897 30.694069 11.594059 98.045013 10.607592 113.203248 8.495488l3.075035-14.59644c-22.410406-14.8318-74.111928-32.948413-100.228749-90.394776 26.28362 3.988848 100.346429 10.326183 112.171756 8.165983-2.581802-2.580778 5.866614-23.232121 2.066055-25.437345C371.891474 289.37155 333.990259 267.313162 336.500429 211.462133z" p-id="1011" fill="#11a0ee"></path></svg>